<svg width="40" height="35" viewBox="0 0 40 35" fill="none" xmlns="http://www.w3.org/2000/svg">
<path d="M1.86377 11.5939C1.86377 1.81641 11.6294 1.81641 19.9999 1.81641C28.3705 1.81641 38.1361 1.81641 38.1361 11.5939C38.1361 22.7681 28.3705 10.1971 28.3705 10.1971H11.6294C11.6294 10.1971 1.86377 22.7681 1.86377 11.5939ZM13.0245 14.3874C13.0245 14.3874 6.04904 21.3713 6.04904 33.9424H33.9508C33.9508 21.3713 26.9754 14.3874 26.9754 14.3874H13.0245Z" stroke="black" stroke-width="2" stroke-linecap="round" stroke-linejoin="round"/>
<path d="M20 29.7524C23.082 29.7524 25.5804 27.2509 25.5804 24.1652C25.5804 21.0796 23.082 18.5781 20 18.5781C16.9181 18.5781 14.4197 21.0796 14.4197 24.1652C14.4197 27.2509 16.9181 29.7524 20 29.7524Z" stroke="black" stroke-width="2" stroke-linecap="round" stroke-linejoin="round"/>
</svg>
