<?xml version="1.0" encoding="UTF-8"?>
<svg xmlns="http://www.w3.org/2000/svg" xmlns:xlink="http://www.w3.org/1999/xlink" width="20px" height="20px" viewBox="0 0 20 20" version="1.1">
<g id="surface1">
<path style=" stroke:none;fill-rule:nonzero;fill:rgb(0%,0%,0%);fill-opacity:1;" d="M 10.085938 0.179688 C 4.664062 0.179688 0.265625 4.574219 0.265625 10 C 0.265625 15.421875 4.664062 19.820312 10.085938 19.820312 C 15.511719 19.820312 19.90625 15.421875 19.90625 10 C 19.90625 4.574219 15.511719 0.179688 10.085938 0.179688 Z M 11.800781 15.804688 C 11.800781 16.6875 11.039062 17.398438 10.101562 17.398438 C 9.160156 17.398438 8.398438 16.6875 8.398438 15.804688 L 8.398438 8.492188 C 8.398438 7.613281 9.160156 6.898438 10.101562 6.898438 C 11.039062 6.898438 11.800781 7.613281 11.800781 8.492188 Z M 10.085938 6.242188 C 9.078125 6.242188 8.257812 5.425781 8.257812 4.414062 C 8.257812 3.40625 9.078125 2.585938 10.085938 2.585938 C 11.097656 2.585938 11.914062 3.40625 11.914062 4.414062 C 11.914062 5.425781 11.097656 6.242188 10.085938 6.242188 Z M 10.085938 6.242188 "/>
</g>
</svg>
